<?xml version="1.0" encoding="UTF-8"?>
<svg xmlns="http://www.w3.org/2000/svg" viewBox="0 0 16 16" width="16px" height="16px">
<g id="surface171778257">
<path style=" stroke:none;fill-rule:nonzero;fill:rgb(5.882353%,16.470589%,34.901962%);fill-opacity:1;" d="M 4.621094 -0.105469 C 2.015625 -0.105469 -0.105469 2.015625 -0.105469 4.625 L -0.105469 11.378906 C -0.105469 13.984375 2.015625 16.105469 4.625 16.105469 L 11.378906 16.105469 C 13.984375 16.105469 16.105469 13.984375 16.105469 11.375 L 16.105469 4.621094 C 16.105469 2.015625 13.984375 -0.105469 11.375 -0.105469 Z M 12.730469 2.59375 C 13.101562 2.59375 13.40625 2.898438 13.40625 3.269531 C 13.40625 3.644531 13.101562 3.945312 12.730469 3.945312 C 12.355469 3.945312 12.054688 3.644531 12.054688 3.269531 C 12.054688 2.898438 12.355469 2.59375 12.730469 2.59375 Z M 8 3.945312 C 10.234375 3.945312 12.054688 5.765625 12.054688 8 C 12.054688 10.234375 10.234375 12.054688 8 12.054688 C 5.765625 12.054688 3.945312 10.234375 3.945312 8 C 3.945312 5.765625 5.765625 3.945312 8 3.945312 Z M 8 5.296875 C 6.507812 5.296875 5.296875 6.507812 5.296875 8 C 5.296875 9.492188 6.507812 10.703125 8 10.703125 C 9.492188 10.703125 10.703125 9.492188 10.703125 8 C 10.703125 6.507812 9.492188 5.296875 8 5.296875 Z M 8 5.296875 "/>
</g>
</svg>
