<svg width="24" height="24" viewBox="0 0 24 24" fill="none" xmlns="http://www.w3.org/2000/svg">
<path d="M0 5.86907C0 4.28453 1.26414 3 2.82353 3H21.1765C22.7359 3 24 4.28453 24 5.86907V18.1309C24 19.7155 22.7359 21 21.1765 21H2.82353C1.26414 21 0 19.7155 0 18.1309V5.86907Z" fill="#EC1C24"/>
<path d="M12.2764 8.48304C12.2846 7.87197 12.8261 7.45153 12.8489 6.63755C13.2366 7.12523 12.5957 8.03921 12.8231 8.56958C12.9272 7.96787 13.5266 7.63689 13.6775 6.83695C13.9845 7.3796 13.2079 8.18189 13.3494 8.74091C13.5459 8.162 14.1903 7.92986 14.464 7.16266C14.6821 7.74683 13.7903 8.41754 13.843 8.99177C14.1271 8.45146 14.8002 8.32281 15.1908 7.60766C15.3154 8.21873 14.3283 8.7415 14.2909 9.31748C14.6564 8.82804 15.3417 8.80582 15.8387 8.16084C15.8662 8.78418 14.8096 9.14556 14.6827 9.70868C15.1201 9.28239 15.7995 9.36777 16.3913 8.80816C16.3217 9.428 15.2218 9.62038 15.0072 10.1566C15.5066 9.804 16.165 9.99463 16.8369 9.53501C16.6714 10.1361 15.5545 10.1543 15.2598 10.6501C15.8071 10.38 16.427 10.6712 17.1638 10.3221C16.9059 10.8893 15.799 10.7326 15.43 11.1764C16.0136 10.9951 16.5814 11.3805 17.3626 11.1507C17.0176 11.6711 15.951 11.3425 15.5171 11.7232C16.1212 11.6354 16.6217 12.1038 17.4287 11.9998C17.0082 12.46 16.0048 11.9688 15.5171 12.2763C16.1282 12.2845 16.5486 12.8266 17.3614 12.8482C16.8737 13.2377 15.9604 12.5944 15.43 12.8231C16.0329 12.9272 16.3632 13.5265 17.1638 13.6774C16.6211 13.9844 15.8183 13.2079 15.2586 13.3494C15.8376 13.5458 16.0709 14.1902 16.8369 14.4639C16.2533 14.6832 15.5832 13.7903 15.0072 13.8429C15.5487 14.1271 15.6779 14.8001 16.3913 15.1908C15.7802 15.3153 15.2581 14.3282 14.6815 14.2908C15.1715 14.6563 15.1932 15.3416 15.8387 15.8387C15.216 15.8661 14.8528 14.8095 14.2909 14.6826C14.7172 15.12 14.6312 15.7995 15.1908 16.3913C14.5704 16.3217 14.3786 15.2217 13.843 15.0071C14.195 15.5065 14.0038 16.165 14.464 16.8368C13.8623 16.6714 13.8447 15.5545 13.3494 15.2598C13.6202 15.8071 13.3278 16.4269 13.6775 17.1637C13.1097 16.9058 13.2664 15.7989 12.8231 15.4299C13.0038 16.0135 12.6197 16.5813 12.8489 17.3625C12.3284 17.0175 12.6571 15.9509 12.2764 15.517C12.3641 16.1211 11.8957 16.6217 11.9998 17.4286C11.5396 17.0082 12.0308 16.0047 11.7232 15.517C11.715 16.1281 11.1736 16.5486 11.1507 17.3614C10.7619 16.8749 11.4039 15.9603 11.1759 15.4299C11.0724 16.0328 10.4724 16.3632 10.3221 17.1637C10.0152 16.6211 10.7917 15.8182 10.6496 15.2598C10.4531 15.8375 9.80874 16.0708 9.53507 16.8368C9.31637 16.2533 10.2093 15.5831 10.1567 15.0071C9.87189 15.5486 9.19884 15.6779 8.8088 16.3913C8.68425 15.7802 9.67132 15.258 9.70874 14.6826C9.34327 15.1715 8.65852 15.1931 8.16148 15.8387C8.13341 15.2159 9.19065 14.8528 9.31754 14.2908C8.88014 14.7171 8.20007 14.6311 7.6083 15.1908C7.67847 14.5703 8.77898 14.3785 8.99242 13.8429C8.49362 14.1949 7.83519 14.0037 7.1633 14.4639C7.32938 13.8622 8.44626 13.8447 8.74097 13.3494C8.19306 13.6201 7.57322 13.3289 6.83701 13.6774C7.09547 13.1096 8.20124 13.2663 8.57022 12.8231C7.98664 13.0038 7.42001 12.6196 6.6382 12.8482C6.98203 12.329 8.04979 12.6564 8.4831 12.2763C7.87846 12.3641 7.37908 11.8951 6.57153 11.9998C6.99256 11.5401 7.99541 12.0307 8.4831 11.7232C7.87261 11.715 7.45217 11.1735 6.6382 11.1507C7.12588 10.7618 8.03985 11.4039 8.57022 11.1758C7.96793 11.0723 7.63754 10.4724 6.8376 10.3221C7.38025 10.0145 8.18253 10.7916 8.74156 10.6496C8.16265 10.4531 7.9305 9.80867 7.1633 9.53501C7.74748 9.31631 8.41819 10.2092 8.99242 10.1566C8.45152 9.87183 8.32346 9.19878 7.6083 8.80874C8.21937 8.68419 8.74214 9.67126 9.31813 9.70868C8.82869 9.34321 8.80647 8.65846 8.16148 8.16142C8.78425 8.13394 9.14621 9.19059 9.70933 9.31748C9.28304 8.88008 9.36842 8.20001 8.8088 7.60824C9.42806 7.67841 9.62103 8.77892 10.1572 8.99236C9.80406 8.49356 9.99527 7.83571 9.53566 7.16324C10.1368 7.32931 10.1549 8.4462 10.6508 8.74091C10.3806 8.193 10.6718 7.57316 10.3227 6.83754C10.8899 7.09541 10.7332 8.20118 11.1771 8.57016C10.9958 7.98658 11.3811 7.41995 11.1513 6.63813C11.6718 6.98197 11.3431 8.04973 11.7238 8.48304C11.6355 7.8784 12.1045 7.37902 12.0004 6.57147C12.46 6.99191 11.9688 7.99535 12.2764 8.48304Z" fill="#FFD84D"/>
<path d="M12.0005 14.8572C12.3758 14.8571 12.7473 14.7831 13.0939 14.6395C13.4405 14.4958 13.7554 14.2853 14.0207 14.0199C14.2859 13.7546 14.4963 13.4395 14.6398 13.0929C14.7834 12.7462 14.8572 12.3746 14.8571 11.9994C14.857 11.6242 14.7831 11.2527 14.6394 10.9061C14.4957 10.5595 14.2852 10.2446 14.0199 9.97931C13.7545 9.71405 13.4395 9.50366 13.0928 9.36015C12.7461 9.21663 12.3746 9.14281 11.9994 9.14288C11.2416 9.14304 10.515 9.44421 9.97925 9.98013C9.44354 10.5161 9.14267 11.2428 9.14282 12.0006C9.14298 12.7584 9.44414 13.485 9.98007 14.0207C10.516 14.5565 11.2428 14.8573 12.0005 14.8572Z" fill="#E8112D"/>
<path d="M11.9995 9.47943C12.7372 9.47943 13.4 9.79524 13.8613 10.3002C13.1372 10.3732 12.5233 10.5441 11.9995 10.8039C11.4757 10.5441 10.8612 10.3732 10.1382 10.3002C10.3741 10.0412 10.6616 9.8344 10.9821 9.69305C11.3026 9.55171 11.6492 9.47895 11.9995 9.47943ZM11.8092 10.9065C11.7514 10.9387 11.6944 10.9723 11.6383 11.0072C11.1687 10.758 10.606 10.5971 9.9373 10.5494C9.9678 10.5063 9.99983 10.4642 10.0333 10.4233C10.728 10.4852 11.3143 10.6513 11.8092 10.9065ZM12.1916 10.9065C12.2499 10.9389 12.3065 10.9725 12.3618 11.0072C12.832 10.758 13.3941 10.5971 14.0629 10.5494C14.0326 10.5063 14.0007 10.4642 13.9674 10.4233C13.2722 10.4852 12.6865 10.6513 12.1916 10.9065ZM9.85304 10.679C9.82632 10.7224 9.80097 10.7666 9.77704 10.8116C10.3992 10.8257 10.9213 10.9695 11.3502 11.2064C11.395 11.1725 11.4406 11.1397 11.4869 11.108C11.0391 10.8635 10.4976 10.7109 9.85304 10.679ZM9.77645 13.1878C9.55962 12.8149 9.47949 12.4619 9.47949 12C9.47949 11.6229 9.5608 11.2671 9.7081 10.9471C10.3103 10.943 10.814 11.0744 11.2253 11.303C10.6166 11.802 10.1223 12.3865 9.77645 13.1878ZM10.9725 14.3002C10.8594 14.2566 10.7362 14.1335 10.6314 14.0746C10.6909 13.1277 11.134 12.3488 11.7514 11.6936C11.7974 11.7384 11.8416 11.7832 11.884 11.8309C11.3101 12.502 10.9413 13.3728 10.9725 14.3002ZM14.1477 10.679C14.1742 10.722 14.1995 10.7662 14.2237 10.8116C13.6009 10.8257 13.0789 10.9695 12.6505 11.2064C12.6057 11.1724 12.5599 11.1396 12.5133 11.108C12.9616 10.8635 13.5025 10.7109 14.1477 10.679Z" fill="#FFD84D"/>
<path d="M14.2237 13.1884C14.44 12.8155 14.5207 12.4619 14.5207 12C14.5207 11.6229 14.4388 11.267 14.2915 10.9471C13.6899 10.943 13.1856 11.0744 12.7743 11.303C13.3841 11.802 13.8791 12.3871 14.2237 13.1884ZM12.0001 12.0466C12.452 12.7736 12.5386 13.569 12.5139 14.4676C12.3177 14.5159 12.2116 14.5206 12.0001 14.5206C11.7886 14.5206 11.6825 14.5159 11.4863 14.4676C11.4616 13.615 11.5482 12.8013 12.0001 12.0466ZM13.0247 14.3002C13.1373 14.2566 13.2639 14.17 13.3688 14.1117C13.3093 13.1649 12.8656 12.3488 12.2482 11.6942C12.2027 11.7385 12.1587 11.7843 12.1162 11.8315C12.6912 12.502 13.0559 13.3728 13.0247 14.3002ZM11.6012 11.5593C11.5456 11.5133 11.488 11.4696 11.4286 11.4285C10.7893 11.9953 10.3144 12.654 10.0481 13.5467C10.1465 13.6592 10.1447 13.7423 10.2614 13.8354C10.4264 12.8968 10.9608 12.1785 11.6012 11.5593ZM12.3996 11.5593C12.4532 11.5151 12.5139 11.4686 12.5722 11.4285C13.2115 11.9953 13.6846 12.6658 13.9515 13.559C13.8525 13.6716 13.8384 13.7429 13.7206 13.8359C13.5562 12.8968 13.04 12.1785 12.3996 11.5593ZM12.0001 11.0131C12.0319 11.032 12.1409 11.1003 12.1686 11.1186C12.1256 11.1451 12.0272 11.2117 12.0001 11.2299C11.9448 11.1915 11.8886 11.1543 11.8316 11.1186C11.8593 11.1003 11.9683 11.0314 12.0001 11.0131ZM11.6813 11.2234C11.6383 11.2559 11.5729 11.3059 11.5482 11.3271C11.6101 11.3678 11.6931 11.4308 11.7196 11.4515C11.7521 11.4238 11.8157 11.3672 11.8516 11.3413C11.7966 11.2996 11.7398 11.2603 11.6813 11.2234ZM12.3189 11.2234C12.3619 11.2559 12.4273 11.3059 12.452 11.3271C12.3935 11.3667 12.3363 11.4082 12.2806 11.4515C12.2487 11.4238 12.1845 11.3672 12.1486 11.3413C12.1928 11.3089 12.2859 11.2417 12.3189 11.2234ZM12.0001 11.4585C12.0278 11.4821 12.1097 11.5546 12.1315 11.5764C12.0857 11.6167 12.0419 11.6592 12.0001 11.7036C11.9587 11.659 11.915 11.6166 11.8693 11.5764C11.8905 11.5546 11.973 11.4827 12.0001 11.4585Z" fill="#FFD84D"/>
</svg>
