<svg width="24" height="18" viewBox="0 0 24 24" fill="none" xmlns="http://www.w3.org/2000/svg">
<path d="M24 18C24 18.7956 23.719 19.5587 23.219 20.1213C22.7189 20.6839 22.0406 21 21.3333 21H2.66667C1.95942 21 1.28115 20.6839 0.781049 20.1213C0.280952 19.5587 0 18.7956 0 18V15H24V18Z" fill="#CB0C01"/>
<path d="M0 9H24V15H0V9Z" fill="#0027A6"/>
<path d="M21.3333 3H2.66667C1.95942 3 1.28115 3.31607 0.781049 3.87868C0.280952 4.44129 0 5.20435 0 6L0 9H24V6C24 5.20435 23.719 4.44129 23.219 3.87868C22.7189 3.31607 22.0406 3 21.3333 3Z" fill="#FDF9F9"/>
</svg>
