<svg width="18" height="14" viewBox="0 0 18 14" fill="none" xmlns="http://www.w3.org/2000/svg">
<path d="M17.6203 2.66709C17.5178 2.28655 17.3173 1.93958 17.0386 1.66092C16.76 1.38225 16.413 1.18167 16.0325 1.07924C14.6311 0.699951 9 0.699951 9 0.699951C9 0.699951 3.36887 0.699951 1.96752 1.07924C1.587 1.18167 1.24005 1.38225 0.961397 1.66092C0.682748 1.93958 0.482174 2.28655 0.379749 2.66709C0.118085 4.09634 -0.00889312 5.54698 0.000483683 6.99995C-0.00889312 8.45292 0.118085 9.90357 0.379749 11.3328C0.482174 11.7134 0.682748 12.0603 0.961397 12.339C1.24005 12.6177 1.587 12.8182 1.96752 12.9207C3.36887 13.3 9 13.3 9 13.3C9 13.3 14.6311 13.3 16.0325 12.9207C16.413 12.8182 16.76 12.6177 17.0386 12.339C17.3173 12.0603 17.5178 11.7134 17.6203 11.3328C17.8819 9.90357 18.0089 8.45292 17.9995 6.99995C18.0089 5.54698 17.8819 4.09634 17.6203 2.66709ZM7.2001 9.69995V4.29995L11.8734 6.99995L7.2001 9.69995Z" fill="#0F2A59"/>
</svg>
